subject01_walk1_grf.mot																		
version=1																		
nRows=66							0.05											
nColumns=19																		
inDegrees=yes																		
endheader																		
time	ground_force_vx	ground_force_vy	ground_force_vz	ground_force_px	ground_force_py	ground_force_pz	1_ground_force_vx	1_ground_force_vy	1_ground_force_vz	1_ground_force_px	1_ground_force_py	1_ground_force_pz	ground_torque_x	ground_torque_y	ground_torque_z	1_ground_torque_x	1_ground_torque_y	1_ground_torque_z
0	59.21193601	434.8303844	-27.67682994	0.37898285	-0.0075	0.17774652	10.07323009	11.95289711	-4.356843437	0.81009656	-0.0075	-0.15354309	0	7.896618835	0	0.907054657	-0.441802713	4.013281014
0.0017	60.19911929	433.4486792	-27.33907587	0.37809513	-0.0075	0.17810137	11.0324205	16.78651625	-4.583295423	0.80990349	-0.0075	-0.15269428	0	7.320847033	0	0.765633811	-0.372738803	3.569692353
0.0033	61.17912745	432.0582132	-26.99979882	0.37719739	-0.0075	0.17845514	11.96078372	21.62413526	-4.825103996	0.80968278	-0.0075	-0.15191409	0	6.749667954	0	0.63323752	-0.303642607	3.134993727
0.005	62.14473551	430.6501657	-26.65756697	0.37628513	-0.0075	0.1788046	12.82799737	26.46907517	-5.096695959	0.80943495	-0.0075	-0.15120007	0	6.188744795	0	0.511146951	-0.233606126	2.715718924
0.0067	63.08880895	429.215585	-26.31116495	0.37535383	-0.0075	0.17914662	13.60469856	31.32328998	-5.410753656	0.80916055	-0.0075	-0.15054975	0	5.643395267	0	0.400504962	-0.161630155	2.317862797
0.0083	64.00423227	427.7453313	-25.95964742	0.37439896	-0.0075	0.17947833	14.26296292	36.18688053	-5.777424325	0.8088601	-0.0075	-0.14996068	0	5.118388099	0	0.302229143	-0.086658116	1.946621781
0.01	64.88403883	426.2300559	-25.60245197	0.37341601	-0.0075	0.17979706	14.77688067	41.0577046	-6.203740166	0.80853414	-0.0075	-0.14943038	0	4.617866658	0	0.216934992	-0.007596077	1.606246789
0.0117	65.72141999	424.6601653	-25.2394164	0.37240058	-0.0075	0.1801005	15.12302571	45.93121323	-6.693180121	0.80818319	-0.0075	-0.14895641	0	4.145224401	0	0.144883145	0.076618339	1.299871212
0.0133	66.50991682	423.0258475	-24.870852	0.37134841	-0.0075	0.18038667	15.28098769	50.80048603	-7.245472581	0.80780779	-0.0075	-0.1485363	0	3.703077349	0	0.085959294	0.166999198	1.029440616
0.015	67.24345624	421.3171003	-24.49752205	0.37025539	-0.0075	0.18065393	15.23392385	55.65648687	-7.856603341	0.80740847	-0.0075	-0.14816759	0	3.293240352	0	0.039670927	0.264450838	0.795711973
0.0167	67.91651415	419.5237893	-24.12063733	0.36911768	-0.0075	0.18090103	14.96902741	60.48853449	-8.519003493	0.80698576	-0.0075	-0.14784782	0	2.916780293	0	0.005161499	0.369707375	0.59827243
0.0183	68.52433328	417.6357397	-23.74185577	0.36793175	-0.0075	0.18112703	14.47794346	65.28489781	-9.222036463	0.80654019	-0.0075	-0.14757452	0	2.574114169	0	-0.018730912	0.483300547	0.43565525
0.02	69.06297817	415.6428507	-23.36316204	0.36669441	-0.0075	0.18133136	13.75715414	70.03362116	-9.952524087	0.80607229	-0.0075	-0.14734524	0	2.265051649	0	-0.033419736	0.605494932	0.305474863
0.0217	69.52960417	413.5352356	-22.98684377	0.36540298	-0.0075	0.18151371	12.80820043	74.72329075	-10.69553691	0.8055826	-0.0075	-0.14715751	0	1.988986282	0	-0.040485535	0.736256321	0.20461688
0.0233	69.92252584	411.3033535	-22.61532738	0.36405532	-0.0075	0.18167405	11.63778691	79.34394912	-11.43517789	0.80507164	-0.0075	-0.14700888	0	1.7449778	0	-0.041593169	0.875204523	0.129415389
0.025	70.24137004	408.9382147	-22.25109595	0.36264997	-0.0075	0.18181255	10.25776807	83.88788913	-12.15545829	0.80453995	-0.0075	-0.14689688	0	1.531889729	0	-0.038400377	1.021636225	0.075904397
0.0267	70.48708523	406.4315378	-21.89654725	0.36118624	-0.0075	0.1819296	8.684930347	88.35035199	-12.84111715	0.80398806	-0.0075	-0.14681905	0	1.348495502	0	-0.032483755	1.174510516	0.040020627
0.0283	70.66201031	403.7759256	-21.55386253	0.35966428	-0.0075	0.18202572	6.940596942	92.73013862	-13.47839388	0.8034165	-0.0075	-0.14677294	0	1.193581031	0	-0.025256581	1.332488449	0.017784834
0.03	70.76980269	400.9650404	-21.22486536	0.3580852	-0.0075	0.18210156	5.050077999	97.02998473	-14.05568968	0.8028258	-0.0075	-0.14675607	0	1.065977571	0	-0.017896554	1.49398469	0.005519185
0.0317	70.81532482	397.9937535	-20.91088558	0.35645113	-0.0075	0.1821579	3.041924234	101.2567441	-14.56398772	0.80221649	-0.0075	-0.14676599	0	0.964566736	0	-0.011317437	1.65720866	-3.78095E-05
0.0333	70.80456824	394.8582656	-20.61269641	0.35476531	-0.0075	0.18219558	0.947021212	105.4213153	-14.99724047	0.80158911	-0.0075	-0.14680024	0	0.888350915	0	-0.006116175	1.82025431	-0.001603713
0.035	70.7442979	391.5562133	-20.33034673	0.35303203	-0.0075	0.18221556	-1.202352709	109.5384234	-15.3523812	0.80094418	-0.0075	-0.14685635	0	0.836321354	0	-0.00257317	1.981151513	-0.001269506
0.0367	70.64189696	388.0867517	-20.06318321	0.35125675	-0.0075	0.18221889	-3.373646612	113.6260767	-15.6292637	0.80028224	-0.0075	-0.14693188	0	0.80746499	0	-0.00064832	2.137979733	-0.000471301
0.0383	70.50497189	384.450543	-19.80976303	0.34944594	-0.0075	0.18220671	-5.535131765	117.7049461	-15.83035788	0.79960382	-0.0075	-0.14702434	0	0.800660889	0	0	2.288910661	0
0.04	70.34103093	380.6497896	-19.56789294	0.34760705	-0.0075	0.18218029	-7.656954963	121.797535	-15.96030973	0.79890945	-0.0075	-0.14713129	0	0.814603701	0	0	2.432315783	0
0.0417	70.15711084	376.6881533	-19.33466113	0.3457484	-0.0075	0.182141	-9.712177655	125.927284	-16.02532858	0.7981993	-0.0075	-0.1472519	0	0.847705189	0	0	2.566809725	0
0.0433	69.95950181	372.5706598	-19.1065271	0.34387904	-0.0075	0.18209035	-11.67771023	130.1176134	-16.03256043	0.79748087	-0.0075	-0.14739165	0	0.898049835	0	0	2.691085955	0
0.045	69.75338488	368.3035721	-18.87944644	0.34200856	-0.0075	0.18202997	-13.5349904	134.3909457	-15.98940592	0.79676384	-0.0075	-0.14755609	0	0.96335934	0	0	2.804064457	0
0.0467	69.54253249	363.8942267	-18.64899149	0.34014682	-0.0075	0.18196166	-15.2705207	138.7678572	-15.90280147	0.79605866	-0.0075	-0.14775032	0	1.040935347	0	0	2.904945731	0
0.0483	69.32925188	359.3508352	-18.41057946	0.33830387	-0.0075	0.18188729	-16.8762357	143.2661918	-15.77873944	0.79537562	-0.0075	-0.14797884	0	1.127742666	0	0	2.993253175	0
0.05	69.11410045	354.6822818	-18.15961336	0.33648959	-0.0075	0.18180892	-18.34950373	147.900415	-15.62170073	0.79472393	-0.0075	-0.14824501	0	1.220392918	0	0	3.068849735	0
0.0517	68.89595995	349.8979074	-17.8917246	0.33471357	-0.0075	0.18172865	-19.69292964	152.681046	-15.43439121	0.79411127	-0.0075	-0.14855107	0	1.315282762	0	0	3.13196146	0
0.0533	68.67206812	345.0072395	-17.60293711	0.33298473	-0.0075	0.18164865	-20.91396845	157.6142973	-15.21757691	0.79354298	-0.0075	-0.14889788	0	1.408681977	0	0	3.183131948	0
0.055	68.43823237	340.0197939	-17.28988595	0.33131132	-0.0075	0.18157109	-22.02427066	162.7018739	-14.97009121	0.79302188	-0.0075	-0.14928495	0	1.496892056	0	0	3.223221224	0
0.0567	68.18902147	334.9448242	-16.94995191	0.32970057	-0.0075	0.18149812	-23.03880591	167.9409495	-14.68902997	0.79254833	-0.0075	-0.14971046	0	1.576389931	0	0	3.25333103	0
0.0583	67.91814634	329.7911177	-16.58140774	0.32815859	-0.0075	0.18143175	-23.97497909	173.3243488	-14.37009806	0.79211993	-0.0075	-0.15017146	0	1.64400325	0	0	3.274779647	0
0.06	67.61885639	324.5668124	-16.18352111	0.32669028	-0.0075	0.18137383	-24.85154799	178.8407963	-14.00806656	0.79173184	-0.0075	-0.15066393	0	1.697050856	0	0	3.289040259	0
0.0617	67.28428975	319.2792327	-15.75657792	0.3252991	-0.0075	0.18132595	-25.68753319	184.4754065	-13.59727276	0.79137709	-0.0075	-0.15118305	0	1.733455023	0	0	3.297677001	0
0.0633	66.90800636	313.9347564	-15.30190794	0.32398711	-0.0075	0.18128937	-26.50120628	190.2101738	-13.13225168	0.7910469	-0.0075	-0.15172343	0	1.751906949	0	0	3.302296492	0
0.065	66.48432967	308.5387104	-14.82181536	0.32275478	-0.0075	0.18126493	-27.30910112	196.024603	-12.6082224	0.7907311	-0.0075	-0.15227921	0	1.751878629	0	0	3.304481085	0
0.0667	66.00878443	303.0953407	-14.31949186	0.32160106	-0.0075	0.18125302	-28.12519499	201.8963928	-12.02161511	0.79041865	-0.0075	-0.15284444	0	1.73367649	0	0	3.305740914	0
0.0683	65.47837212	297.6077637	-13.79886697	0.32052326	-0.0075	0.18125347	-28.96029547	207.8021226	-11.3704626	0.79009793	-0.0075	-0.15341321	0	1.69843085	0	0	3.307440528	0
0.07	64.89183697	292.0780269	-13.26445738	0.3195171	-0.0075	0.18126556	-29.82158771	213.7179627	-10.65466215	0.78975725	-0.0075	-0.15397987	0	1.648035562	0	0	3.310769672	0
0.0717	64.24974301	286.5071777	-12.72115903	0.31857669	-0.0075	0.18128796	-30.71243588	219.6203397	-9.876105021	0.78938532	-0.0075	-0.15453919	0	1.585032413	0	0	3.316715849	0
0.0733	63.55448598	280.8953759	-12.17403511	0.31769457	-0.0075	0.18131878	-31.63243827	225.4865836	-9.038637803	0.78897156	-0.0075	-0.15508654	0	1.51247705	0	0	3.326029015	0
0.075	62.81022954	275.2420463	-11.62812314	0.31686177	-0.0075	0.18135557	-32.57765292	231.2954705	-8.147887145	0.78850653	-0.0075	-0.15561798	0	1.433799073	0	0	3.339202607	0
0.0767	62.02258695	269.54606	-11.08819322	0.31606787	-0.0075	0.18139537	-33.54108975	237.0277663	-7.210922905	0.78798227	-0.0075	-0.15613034	0	1.352568155	0	0	3.356467598	0
0.0783	61.19843159	263.8059532	-10.55862365	0.31530119	-0.0075	0.18143475	-34.51333951	242.6666088	-6.235884248	0.78739252	-0.0075	-0.15662134	0	1.272361203	0	0	3.377796459	0
0.08	60.34537774	258.0201523	-10.04320115	0.31454891	-0.0075	0.18147003	-35.48335687	248.1978688	-5.231454551	0.78673295	-0.0075	-0.15708965	0	1.196534116	0	0	3.402896499	0
0.0817	59.47138056	252.187225	-9.54503283	0.31379727	-0.0075	0.1814973	-36.43926652	253.610378	-4.206341246	0.7860013	-0.0075	-0.1575348	0	1.128077404	0	0	3.431263866	0
0.0833	58.58423405	246.3061068	-9.066465675	0.31303189	-0.0075	0.18151265	-37.36928185	258.8960574	-3.168776381	0.78519746	-0.0075	-0.15795723	0	1.069451671	0	0	3.462216534	0
0.085	57.69110453	240.3763477	-8.609050104	0.31223813	-0.0075	0.18151228	-38.26251016	264.0499714	-2.126027175	0.78432342	-0.0075	-0.15835819	0	1.022466553	0	0	3.494935068	0
0.0867	56.79806097	234.3982963	-8.173585698	0.31140142	-0.0075	0.18149268	-39.10968194	269.0702456	-1.084037583	0.78338334	-0.0075	-0.15873967	0	0.988231363	0	0	3.52853586	0
0.0883	55.90968129	228.3732808	-7.760114951	0.31050769	-0.0075	0.18145084	-39.90378898	273.9579737	-0.047123652	0.78238324	-0.0075	-0.15910426	0	0.967063855	0	0	3.562102395	0
0.09	55.02886147	222.3037432	-7.368075253	0.30954396	-0.0075	0.1813843	-40.64055424	278.7169335	0.982134601	0.78133091	-0.0075	-0.15945503	0	0.958559592	0	0	3.594763101	0
0.0917	54.1564938	216.1933094	-6.996364202	0.30849873	-0.0075	0.18129144	-41.3186736	283.353345	2.002970311	0.78023551	-0.0075	-0.15979538	0	0.961585181	0	0	3.625725691	0
0.0933	53.29153388	210.0468393	-6.643508398	0.30736257	-0.0075	0.18117144	-41.93985255	287.8754885	3.016268326	0.7791073	-0.0075	-0.16012882	0	0.974392722	0	0	3.65434649	0
0.095	52.4310035	203.8703861	-6.307757419	0.30612861	-0.0075	0.18102452	-42.50872231	292.2933068	4.024346203	0.77795718	-0.0075	-0.16045889	0	0.9946704	0	0	3.680160863	0
0.0967	51.57022937	197.6711179	-5.987259716	0.30479301	-0.0075	0.18085185	-43.03244343	296.6179733	5.030655433	0.77679629	-0.0075	-0.16078889	0	1.019711032	0	0	3.702935963	0
0.0983	50.70311754	191.4571808	-5.68018079	0.30335527	-0.0075	0.18065562	-43.5202284	300.8614089	6.039320099	0.77563563	-0.0075	-0.16112183	0	1.046560663	0	0	3.722679758	0
0.1	49.82256953	185.2375253	-5.384794852	0.30181867	-0.0075	0.180439	-43.98273659	305.03588	7.054753611	0.77448553	-0.0075	-0.16146023	0	1.072141693	0	0	3.739627207	0
0.1017	48.92099673	179.0216876	-5.099636585	0.30019031	-0.0075	0.1802059	-44.43135938	309.1534706	8.081152346	0.77335541	-0.0075	-0.16180606	0	1.093469031	0	0	3.754248858	0
0.1033	47.99069655	172.8195581	-4.823480765	0.29848108	-0.0075	0.17996107	-44.87746352	313.2257444	9.122133144	0.77225325	-0.0075	-0.16216068	0	1.107722765	0	0	3.767198935	0
0.105	47.0245096	166.641142	-4.555455232	0.29670567	-0.0075	0.1797097	-45.33167095	317.2632869	10.18027042	0.77118549	-0.0075	-0.16252479	0	1.112464924	0	0	3.779286585	0
0.1067	46.01617062	160.4962975	-4.295009559	0.29488197	-0.0075	0.1794573	-45.80319875	321.2754119	11.2568679	0.7701567	-0.0075	-0.16289845	0	1.105702103	0	0	3.791418368	0
0.1083	44.96077095	154.394544	-4.041982506	0.2930306	-0.0075	0.17920938	-46.29926669	325.2698438	12.35171786	0.76916958	-0.0075	-0.16328111	0	1.086027587	0	0	3.804563173	0
